<svg width="21" height="20" viewBox="0 0 21 20" fill="none" xmlns="http://www.w3.org/2000/svg">
<path d="M20.1339 10.2095C20.1339 9.4404 19.5104 8.81689 18.7413 8.81689H11.778V1.8536C11.778 1.08445 11.1545 0.460938 10.3853 0.460938C9.61618 0.460938 8.99267 1.08445 8.99267 1.8536V8.81689H2.02938C1.26023 8.81689 0.636719 9.4404 0.636719 10.2095C0.636719 10.9787 1.26023 11.6022 2.02938 11.6022H8.99267V18.5655C8.99267 19.3346 9.61618 19.9582 10.3853 19.9582C11.1545 19.9582 11.778 19.3346 11.778 18.5655V11.6022H18.7413C19.5104 11.6022 20.1339 10.9787 20.1339 10.2095Z" fill="white"/>
</svg>
