<svg width="100" height="100" viewBox="0 0 100 100" fill="none" xmlns="http://www.w3.org/2000/svg">
<path d="M0 50C0 22.3858 22.3858 0 50 0V0C77.6142 0 100 22.3858 100 50V50C100 77.6142 77.6142 100 50 100H0V50Z" fill="#E58411" style="fill:#E58411;fill:color(display-p3 0.8980 0.5176 0.0667);fill-opacity:1;"/>
<path d="M57.188 16C64.46 16 70.58 18.461 75.548 23.3829C80.516 28.3048 83 34.3486 83 41.5143C83 48.68 80.516 54.7238 75.548 59.6457C70.58 64.5676 64.46 67.0286 57.188 67.0286H43.904V92H29V16H57.188ZM57.188 53.0229C60.356 53.0229 62.984 51.9371 65.072 49.7657C67.16 47.5219 68.204 44.7714 68.204 41.5143C68.204 38.1848 67.16 35.4343 65.072 33.2629C62.984 31.0914 60.356 30.0057 57.188 30.0057H43.904V53.0229H57.188Z" fill="white" style="fill:white;fill-opacity:1;"/>
</svg>
