<svg width="76" height="21" viewBox="0 0 76 21" fill="none" xmlns="http://www.w3.org/2000/svg">
<path d="M73.0915 18.2644C71.6542 19.6831 69.8995 20.3924 67.8275 20.3924C65.7555 20.3924 64.0009 19.6831 62.5635 18.2644C61.1449 16.8271 60.4355 15.0724 60.4355 13.0004C60.4355 10.9284 61.1449 9.18306 62.5635 7.7644C64.0009 6.32707 65.7555 5.6084 67.8275 5.6084C69.8995 5.6084 71.6542 6.32707 73.0915 7.7644C74.5289 9.18306 75.2476 10.9284 75.2476 13.0004C75.2476 15.0724 74.5289 16.8271 73.0915 18.2644ZM65.1115 15.7724C65.8395 16.5004 66.7449 16.8644 67.8275 16.8644C68.9102 16.8644 69.8155 16.5004 70.5435 15.7724C71.2715 15.0444 71.6356 14.1204 71.6356 13.0004C71.6356 11.8804 71.2715 10.9564 70.5435 10.2284C69.8155 9.5004 68.9102 9.1364 67.8275 9.1364C66.7449 9.1364 65.8395 9.5004 65.1115 10.2284C64.4022 10.9564 64.0475 11.8804 64.0475 13.0004C64.0475 14.1204 64.4022 15.0444 65.1115 15.7724Z" fill="#1E1E1E"/>
<path d="M58.7745 9.47208H55.6105V15.2961C55.6105 15.7814 55.7318 16.1361 55.9745 16.3601C56.2172 16.5841 56.5718 16.7147 57.0385 16.7521C57.5052 16.7707 58.0838 16.7614 58.7745 16.7241V20.0001C56.2918 20.2801 54.5372 20.0467 53.5105 19.3001C52.5025 18.5534 51.9985 17.2187 51.9985 15.2961V9.47208H49.5625V6.00008H51.9985V3.17208L55.6105 2.08008V6.00008H58.7745V9.47208Z" fill="#1E1E1E"/>
<path d="M42.1102 5.6084C43.6408 5.6084 44.9008 6.12173 45.8902 7.1484C46.8982 8.17507 47.4022 9.59373 47.4022 11.4044V20.0004H43.7902V11.8524C43.7902 10.9191 43.5382 10.2097 43.0342 9.7244C42.5302 9.2204 41.8582 8.9684 41.0182 8.9684C40.0848 8.9684 39.3382 9.25773 38.7782 9.8364C38.2182 10.4151 37.9382 11.2831 37.9382 12.4404V20.0004H34.3262V6.0004H37.9382V7.5684C38.8155 6.26173 40.2062 5.6084 42.1102 5.6084Z" fill="#1E1E1E"/>
<path d="M27.159 6.0004H30.771V20.0004H27.159V18.3484C26.0763 19.7111 24.555 20.3924 22.595 20.3924C20.7283 20.3924 19.123 19.6831 17.779 18.2644C16.4537 16.8271 15.791 15.0724 15.791 13.0004C15.791 10.9284 16.4537 9.18306 17.779 7.7644C19.123 6.32707 20.7283 5.6084 22.595 5.6084C24.555 5.6084 26.0763 6.28973 27.159 7.6524V6.0004ZM20.495 15.8564C21.223 16.5844 22.147 16.9484 23.267 16.9484C24.387 16.9484 25.311 16.5844 26.039 15.8564C26.7857 15.1097 27.159 14.1577 27.159 13.0004C27.159 11.8431 26.7857 10.9004 26.039 10.1724C25.311 9.42573 24.387 9.0524 23.267 9.0524C22.147 9.0524 21.223 9.42573 20.495 10.1724C19.767 10.9004 19.403 11.8431 19.403 13.0004C19.403 14.1577 19.767 15.1097 20.495 15.8564Z" fill="#1E1E1E"/>
<path d="M8.12831 0.400391C10.0136 0.400391 11.6003 1.03506 12.8883 2.30439C14.1763 3.57372 14.8203 5.13239 14.8203 6.98039C14.8203 8.82839 14.1763 10.3871 12.8883 11.6564C11.6003 12.9257 10.0136 13.5604 8.12831 13.5604H4.68431V20.0004H0.820312V0.400391H8.12831ZM8.12831 9.94839C8.94965 9.94839 9.63098 9.66839 10.1723 9.10839C10.7136 8.52972 10.9843 7.82039 10.9843 6.98039C10.9843 6.12172 10.7136 5.41239 10.1723 4.85239C9.63098 4.29239 8.94965 4.01239 8.12831 4.01239H4.68431V9.94839H8.12831Z" fill="#1E1E1E"/>
</svg>
