<svg width="76" height="21" viewBox="0 0 76 21" fill="none" xmlns="http://www.w3.org/2000/svg">
<path d="M73.0906 18.2639C71.6533 19.6826 69.8986 20.3919 67.8266 20.3919C65.7546 20.3919 64 19.6826 62.5626 18.2639C61.144 16.8266 60.4346 15.0719 60.4346 12.9999C60.4346 10.9279 61.144 9.18258 62.5626 7.76391C64 6.32658 65.7546 5.60791 67.8266 5.60791C69.8986 5.60791 71.6533 6.32658 73.0906 7.76391C74.528 9.18258 75.2466 10.9279 75.2466 12.9999C75.2466 15.0719 74.528 16.8266 73.0906 18.2639ZM65.1106 15.7719C65.8386 16.4999 66.744 16.8639 67.8266 16.8639C68.9093 16.8639 69.8146 16.4999 70.5426 15.7719C71.2706 15.0439 71.6346 14.1199 71.6346 12.9999C71.6346 11.8799 71.2706 10.9559 70.5426 10.2279C69.8146 9.49991 68.9093 9.13591 67.8266 9.13591C66.744 9.13591 65.8386 9.49991 65.1106 10.2279C64.4013 10.9559 64.0466 11.8799 64.0466 12.9999C64.0466 14.1199 64.4013 15.0439 65.1106 15.7719Z" fill="white" style="fill:white;fill-opacity:1;"/>
<path d="M58.7735 9.47183H55.6095V15.2958C55.6095 15.7812 55.7308 16.1358 55.9735 16.3598C56.2161 16.5838 56.5708 16.7145 57.0375 16.7518C57.5041 16.7705 58.0828 16.7612 58.7735 16.7238V19.9998C56.2908 20.2798 54.5361 20.0465 53.5095 19.2998C52.5015 18.5532 51.9975 17.2185 51.9975 15.2958V9.47183H49.5615V5.99984H51.9975V3.17183L55.6095 2.07983V5.99984H58.7735V9.47183Z" fill="white" style="fill:white;fill-opacity:1;"/>
<path d="M42.1093 5.60791C43.64 5.60791 44.9 6.12124 45.8893 7.14791C46.8973 8.17458 47.4013 9.59324 47.4013 11.4039V19.9999H43.7893V11.8519C43.7893 10.9186 43.5373 10.2092 43.0333 9.72391C42.5293 9.21991 41.8573 8.96791 41.0173 8.96791C40.084 8.96791 39.3373 9.25724 38.7773 9.83591C38.2173 10.4146 37.9373 11.2826 37.9373 12.4399V19.9999H34.3253V5.99991H37.9373V7.56791C38.8147 6.26124 40.2053 5.60791 42.1093 5.60791Z" fill="white" style="fill:white;fill-opacity:1;"/>
<path d="M27.1579 5.99991H30.7699V19.9999H27.1579V18.3479C26.0753 19.7106 24.5539 20.3919 22.5939 20.3919C20.7272 20.3919 19.1219 19.6826 17.7779 18.2639C16.4526 16.8266 15.7899 15.0719 15.7899 12.9999C15.7899 10.9279 16.4526 9.18258 17.7779 7.76391C19.1219 6.32658 20.7272 5.60791 22.5939 5.60791C24.5539 5.60791 26.0753 6.28924 27.1579 7.65191V5.99991ZM20.4939 15.8559C21.2219 16.5839 22.1459 16.9479 23.2659 16.9479C24.3859 16.9479 25.3099 16.5839 26.0379 15.8559C26.7846 15.1092 27.1579 14.1572 27.1579 12.9999C27.1579 11.8426 26.7846 10.8999 26.0379 10.1719C25.3099 9.42524 24.3859 9.05191 23.2659 9.05191C22.1459 9.05191 21.2219 9.42524 20.4939 10.1719C19.7659 10.8999 19.4019 11.8426 19.4019 12.9999C19.4019 14.1572 19.7659 15.1092 20.4939 15.8559Z" fill="white" style="fill:white;fill-opacity:1;"/>
<path d="M8.12801 0.399902C10.0133 0.399902 11.6 1.03457 12.888 2.3039C14.176 3.57324 14.82 5.1319 14.82 6.9799C14.82 8.8279 14.176 10.3866 12.888 11.6559C11.6 12.9252 10.0133 13.5599 8.12801 13.5599H4.68401V19.9999H0.820007V0.399902H8.12801ZM8.12801 9.9479C8.94934 9.9479 9.63067 9.6679 10.172 9.1079C10.7133 8.52924 10.984 7.8199 10.984 6.9799C10.984 6.12124 10.7133 5.4119 10.172 4.8519C9.63067 4.2919 8.94934 4.0119 8.12801 4.0119H4.68401V9.9479H8.12801Z" fill="white" style="fill:white;fill-opacity:1;"/>
</svg>
